
    <svg xmlns="http://www.w3.org/2000/svg" width="449" height="706.143">
      <rect
        width="100%"
        height="100%"
        x="0"
        y="0"
        fill="none"
        stroke="none"
      ></rect>
      <g className="currentLayer">
        <g>
          <g fillOpacity="1" fillRule="nonzero" stroke="0" strokeWidth="0">
            <path
              fill="#fff"
              d="M118.45 202.837l-6.071 1.438-1.77-7.474 20.242-4.793 1.769 7.473-6.125 1.451 6.513 27.508-8.044 1.903-6.513-27.506"
            ></path>
            <path
              fill="#fff"
              d="M153.743 210.63l-2.08-6.566c-.614-1.95-1.762-5.703-2.467-7.853l-.104.02c.021 2.27.19 6.302.208 8.25l.135 6.908zm-3.995 7.149l.023 7.2-7.88 1.388 1.273-36.73 9.876-1.74 12.701 34.267-7.881 1.39-2.387-6.783-5.725 1.008"
            ></path>
            <path
              fill="#fff"
              d="M171.363 213.145c1.634.674 4.29.907 6.358.672 3.075-.352 4.295-1.885 4.088-3.688-.252-2.226-1.85-3.065-5.19-4.562-6.17-2.786-7.571-6.599-7.874-9.25-.67-5.882 2.566-11.406 10.834-12.349 2.438-.276 4.842.095 6.029.601l-.364 7.183c-1.132-.516-2.735-.921-4.801-.688-2.756.316-3.92 1.896-3.731 3.54.175 1.537 1.03 2.46 5.319 4.279 5.244 2.194 7.316 5.77 7.732 9.426.768 6.732-3.76 11.758-11.286 12.615-3.073.352-6.013-.012-7.364-.555l.25-7.224"
            ></path>
            <path
              fill="#fff"
              d="M200.656 190.17l-6.23.35-.433-7.667 20.766-1.174.433 7.666-6.283.358 1.596 28.218-8.253.467-1.596-28.219"
            ></path>
            <path
              fill="#fff"
              d="M229.683 217.421l.06-13.117-7.787-22.859 8.797.04 2.096 8.382c.575 2.242 1.098 4.858 1.51 7.418h.108c.332-2.502.77-5.06 1.316-7.564l1.742-8.205 8.532.04-8.048 22.467-.061 13.437-8.265-.039"
            ></path>
            <path
              fill="#fff"
              d="M276.756 206.172l-.27-6.881c-.077-2.043-.193-5.963-.305-8.224l-.105-.008c-.58 2.194-1.483 6.128-1.979 8.01l-1.694 6.698zm-5.737 5.839l-1.88 6.95-7.964-.742 10.924-35.084 9.982.93 3.2 36.398-7.965-.742-.51-7.17-5.787-.54"
            ></path>
            <path
              fill="#fff"
              d="M292.59 221.41l5.774-35.475 7.421 1.208 2.927 13.55c.528 2.41 1.483 7.158 1.932 10.04l.105.016c.262-2.928.804-9.916 1.892-16.6l.935-5.738 7.105 1.156-5.773 35.474-7.423-1.208-2.845-12.726c-.66-2.918-1.528-7.868-1.73-10.602l-.107-.016c-.338 3.078-.983 9.023-2.114 15.971l-.993 6.105-7.105-1.156"
            ></path>
            <path
              fill="#fff"
              d="M333.91 222.519c.234.165.702.276 1.065.362 2.802.663 5.796-2.026 7.848-10.694 1.536-6.487 1.014-10.995-2.463-11.818-.415-.098-.779-.185-1.179-.114zm-1.334-30.022c1.852.055 4.728.406 7.739 1.12 4.722 1.116 7.734 2.982 9.594 5.78 2.438 3.59 2.68 8.582 1.132 15.12-1.585 6.696-4.602 11.571-8.652 13.627-2.944 1.55-6.678 1.816-11.921.576-2.388-.565-4.661-1.379-6.025-1.867l8.133-34.356"
            ></path>
            <path
              fill="#fff"
              d="M198.501 237.144l.982 13.939 6.065-.427-.981-13.939 8.246-.58 2.523 35.858-8.247.58-1.002-14.258-6.066.427 1.003 14.259-8.245.58-2.524-35.859 8.246-.58"
            ></path>
            <path
              fill="#fff"
              d="M235.407 265.112c2.238.017 3.34-4.24 3.402-11.599.05-6.185-.762-10.884-3.268-10.905-2.4-.02-3.665 4.663-3.665 11.01-.168 7.197 1.077 11.473 3.477 11.494zm-.328 7.143c-9.064-.076-11.864-9.699-11.788-18.604.073-8.906 3.885-18.259 12.576-18.187 9.76.083 11.589 10.87 11.532 17.696-.115 13.597-5.068 19.155-12.267 19.095h-.053"
            ></path>
            <path
              fill="#fff"
              d="M261.028 244.533l-6.22-.489.604-7.656 20.733 1.635-.604 7.653-6.273-.493-2.22 28.176-8.241-.65 2.22-28.176"
            ></path>
            <path
              fill="#fff"
              d="M62.077 56.383c-.65-2.296-1.646-4.32-2.984-6.07-1.34-1.748-2.876-3.108-4.613-4.078-1.739-.97-3.655-1.467-5.745-1.496-2.092-.027-4.24.45-6.444 1.428l9.249 32.622c2.463-.698 4.512-1.832 6.15-3.406a16.36 16.36 0 003.771-5.459c.878-2.065 1.356-4.285 1.438-6.659a22.296 22.296 0 00-.822-6.882zM12.783 44.824c-.046-.164-.012-.35.106-.563.059-.104.17-.18.335-.228 2.557-1.609 5.437-3.18 8.64-4.709 2.732-1.307 6.016-2.704 9.85-4.19 3.835-1.486 8.115-2.81 12.84-3.973 4.805-1.182 9.522-1.746 14.15-1.685 4.628.064 8.875.81 12.739 2.241a27.278 27.278 0 0110.093 6.515c2.863 2.91 4.937 6.625 6.217 11.137.93 3.284 1.323 6.94 1.182 10.971-.144 4.03-1.318 8.02-3.523 11.97-2.205 3.95-5.707 7.626-10.507 11.025-4.798 3.402-11.39 6.112-19.77 8.133l1.674 5.91c1.538 4.795 3.099 8.187 4.682 10.177 1.582 1.99 3.037 3.284 4.36 3.884 1.32.601 2.388.918 3.197.954.808.038 1.164.515 1.07 1.427-.087 1.267-.5 2.624-1.24 4.075-.742 1.453-1.71 2.878-2.909 4.282-1.197 1.404-2.633 2.675-4.305 3.814-1.672 1.138-3.41 1.965-5.216 2.477a21.428 21.428 0 01-7.427.776 16.814 16.814 0 01-7.053-2.124c-2.212-1.235-4.195-3.067-5.947-5.496-1.752-2.43-3.174-5.57-4.27-9.43l-18.968-67.37"
            ></path>
            <path
              fill="#fff"
              d="M121.07 13.53a22.544 22.544 0 017.258.022c2.393.4 4.583 1.285 6.57 2.657 1.986 1.371 3.685 3.24 5.094 5.61 1.41 2.368 2.399 5.365 2.97 8.988l11.43 72.55c.027.17 0 .28-.077.335l-.223.23-.233.166-26.922 4.241-.272-.086c-.28-.128-.392-.283-.333-.467l-4.103-26.037-2.926-18.58-1.942-12.323c-.497-3.16-.878-5.581-1.145-7.268l-.697-4.423c-.935-3.74-2.02-6.373-3.252-7.908-1.236-1.532-2.414-2.576-3.54-3.134-1.123-.555-2.02-.91-2.692-1.064-.671-.155-.948-.67-.828-1.554.18-1.065.769-2.237 1.777-3.518 1.008-1.28 2.241-2.49 3.704-3.628 1.46-1.136 3.095-2.148 4.897-3.038 1.803-.888 3.63-1.478 5.484-1.772"
            ></path>
            <path
              fill="#fff"
              d="M247.48 80.048c.665 4.415.283 8.1-1.15 11.05-1.434 2.953-3.51 5.307-6.22 7.066-2.714 1.76-5.874 2.936-9.48 3.532a40.88 40.88 0 01-10.935.316c-2.056-.184-4.942-.361-8.662-.53-3.718-.17-7.714-.329-11.986-.478a414.084 414.084 0 00-12.94-.253c-4.355-.02-8.151.028-11.39.141l-.261-.12c-.261-.16-.353-.327-.273-.501l-.628-18.03c-.018-.513.03-.962.145-1.35.113-.39.417-.89.908-1.504.895-1.227 2.296-3.282 4.201-6.164 1.904-2.884 4.032-6.115 6.384-9.698a703.232 703.232 0 017.424-11.077c2.599-3.804 5.04-7.195 7.327-10.177a33.65 33.65 0 014.51-4.703 95.386 95.386 0 014.855-3.947c1.538-1.16 3.392-2.422 5.566-3.778-4.868-.086-9.243-.062-13.12.073-3.882.136-7.52.39-10.92.765-3.403.375-6.672.872-9.807 1.494-3.137.621-6.315 1.29-9.533 1.997-.168.092-.384.013-.648-.233a1.354 1.354 0 01-.268-.376c-.572-1.686-.967-3.187-1.182-4.503-.218-1.315-.334-2.805-.348-4.47-.016-1.663.246-3.357.782-5.083.537-1.726 1.417-3.422 2.64-5.086 1.222-1.662 2.964-3.132 5.224-4.408 3.093-1.813 6.406-2.889 9.938-3.226 3.53-.335 7.75-.399 12.668-.186 4.915.212 10.794.52 17.638.922 6.84.401 15.164.432 24.968.09.512-.018.858.184 1.046.604l.518 18.546a2.964 2.964 0 01-.454 1.681c-.162.261-.282.48-.361.652-3.745 5.252-6.876 9.715-9.392 13.387a771.344 771.344 0 00-10.71 15.993 170.838 170.838 0 01-3.165 4.719 459.285 459.285 0 01-2.866 4.07c-.936 1.312-2.102 2.76-3.496 4.346-.491.616-1.256 1.368-2.291 2.256-1.037.89-2.095 1.781-3.17 2.672a186.963 186.963 0 00-4.11 3.344l13.683-.478c6.22-.217 10.985-.702 14.288-1.458 3.302-.755 5.709-1.499 7.22-2.235 1.51-.736 2.47-1.324 2.884-1.765.41-.442.92-.459 1.534-.054.875.654 1.61 1.544 2.206 2.675a12.059 12.059 0 011.209 3.48"
            ></path>
            <path
              fill="#fff"
              d="M340.101 89.635c-.01 4.465-.946 8.05-2.81 10.748-1.862 2.702-4.27 4.716-7.216 6.045-2.948 1.328-6.248 2.013-9.903 2.056a40.875 40.875 0 01-10.859-1.34c-2.004-.493-4.83-1.105-8.481-1.833-3.65-.732-7.576-1.494-11.776-2.287a418.916 418.916 0 00-12.753-2.208c-4.3-.679-8.062-1.205-11.28-1.583l-.24-.157c-.234-.199-.3-.377-.195-.539l2.107-17.918c.06-.508.174-.944.348-1.31.17-.368.545-.817 1.124-1.35 1.07-1.076 2.766-2.896 5.086-5.459 2.319-2.561 4.91-5.433 7.778-8.619a698.394 698.394 0 019.013-9.826c3.144-3.367 6.07-6.35 8.781-8.954a33.794 33.794 0 015.17-3.965 95.403 95.403 0 015.396-3.167c1.697-.916 3.72-1.88 6.074-2.893-4.8-.821-9.126-1.46-12.981-1.912a146.529 146.529 0 00-10.91-.896c-3.42-.144-6.726-.147-9.92-.007-3.194.14-6.435.32-9.725.532-.181.066-.381-.044-.605-.329a1.405 1.405 0 01-.21-.41c-.309-1.754-.471-3.297-.486-4.631-.016-1.334.095-2.824.333-4.47.235-1.648.75-3.282 1.543-4.908.79-1.624 1.917-3.166 3.377-4.628 1.46-1.458 3.404-2.648 5.83-3.566a23.934 23.934 0 0110.313-1.687c3.54.203 7.723.779 12.55 1.733 4.827.954 10.59 2.147 17.295 3.58 6.703 1.431 14.924 2.72 24.667 3.864.51.06.821.312.943.755l-2.292 18.412a2.964 2.964 0 01-.703 1.592 5.783 5.783 0 00-.456.59c-4.496 4.626-8.267 8.563-11.308 11.813a828.68 828.68 0 00-7.748 8.365 654.731 654.731 0 00-5.257 5.824 175.759 175.759 0 01-3.843 4.187 485.762 485.762 0 01-3.45 3.588c-1.123 1.156-2.495 2.412-4.114 3.768-.579.533-1.447 1.162-2.605 1.884a219.615 219.615 0 01-3.54 2.161c-1.38.783-2.902 1.677-4.566 2.683l13.598 1.598c6.182.727 10.965.968 14.344.72 3.378-.246 5.87-.618 7.476-1.118 1.604-.498 2.64-.934 3.116-1.308.472-.374.98-.314 1.525.178.767.78 1.359 1.771 1.776 2.98.416 1.208.639 2.415.67 3.622"
            ></path>
            <path
              fill="#fff"
              d="M407.437 93.385l2.966-37.749c-1.208 2.05-2.523 4.468-3.942 7.255a4752.285 4752.285 0 00-9.041 17.841 633.088 633.088 0 01-4.373 8.53zm27.423 39.938c.032.188-.055.34-.265.456l-.282.053-27.798-7.967c-.164-.048-.276-.122-.334-.229l-.192-.255c-.072-.064-.082-.177-.036-.342l.662-13.92-21.771-6.239c-.976 1.85-1.856 3.528-2.64 5.033a548.619 548.619 0 01-2.043 3.874 56.786 56.786 0 00-1.76 3.356c-.13.141-.241.22-.334.237l-.3.113c-.187.035-.322.04-.403.018l-25.707-7.368-.212-.194c-.117-.209-.072-.373.142-.49 7.46-11.174 14.146-21.19 20.06-30.058 2.51-3.805 4.965-7.494 7.365-11.066 2.397-3.57 4.536-6.774 6.413-9.608 1.878-2.834 3.983-6.002 6.318-9.504 2.146-2.846 3.478-5.17 3.996-6.975.516-1.801.694-3.281.54-4.437-.16-1.154-.407-2.067-.747-2.742-.337-.674-.279-1.345.179-2.013.76-1.112 1.884-2.01 3.366-2.695 1.483-.684 3.17-1.154 5.064-1.41a32.813 32.813 0 015.863-.25c2.013.09 3.924.392 5.728.908 2.215.635 4.323 1.64 6.324 3.011 2.003 1.373 3.779 3.147 5.332 5.321 1.55 2.175 2.817 4.714 3.807 7.614.986 2.901 1.614 6.21 1.88 9.924.14 1.992.266 4.646.38 7.961.116 3.316.217 6.983.309 11.003.09 4.018.183 8.261.28 12.725.095 4.465.183 8.883.261 13.252.167 10.253.352 21.221.555 32.903"
            ></path>
            <path
              fill="#ed1c24"
              d="M135.856 362.641c-4.553 4.311-7.67 8.058-9.033 14.303-1.535 7.024-.403 14.197 2.076 20.865 5.44 14.636 15.922 29.032 26.457 40.476 20.448 22.214 54.692 27.543 79.367 8.64 12.793-9.804 21.124-24.12 27.896-38.473 7.836-16.607 9.492-32.485 5.138-50.376-3.48-14.296-8.98-30.715-20.21-40.873-11.71-10.594-28.47-13.38-43.752-12.127-17.683 1.448-34.567 7.86-48.644 18.667-11.671 8.958-29.806 25.59-23.262 41.993.87 2.179 4.094 2.557 4.822 0 7.444-26.101 31.253-42.63 57.06-48.05 12.253-2.573 26.812-3.002 38.448 2.273 12.458 5.646 18.278 18.225 22.512 30.465 4.892 14.144 9.254 28.823 4.72 43.655-3.968 12.98-11.086 26.586-19.51 37.248-16.637 21.053-46.836 27.8-69.856 12.672-13.086-8.6-22.686-22.446-30.882-35.522-7.835-12.497-14.946-33.018-3.252-45.74l-.095-.096"
            ></path>
            <path
              fill="#ed1c24"
              d="M175.11 382.403c-5.825-6.99-19-9.416-22.086-18.888-3.347-10.272 10.615-20.742 18.567-24.595 6.322-3.064 14.34-2.533 17.152 4.89 1.545 4.08 1.348 9.23 1.916 13.53 1.212 9.152 3.23 18.325 6.625 26.927.808 2.046 3.967 1.301 3.376-.93-2.28-8.609-4.51-17.134-5.604-25.997-.68-5.501-.419-11.795-3.128-16.827-5.139-9.545-16.913-8.053-24.72-2.945-8.095 5.295-18.915 14.095-17.699 24.985.64 5.731 5.274 9.554 9.434 13.012 4.406 3.667 9.557 8.083 15.372 8.758 1.07.125 1.342-1.263.794-1.92"
            ></path>
            <path
              fill="#ed1c24"
              d="M205.396 370.315c-.392-7.588.828-15.047 2.6-22.408 1.775-7.367 3.452-16.99 11.847-19.566 14.728-4.516 27.854 10.638 30.29 23.563 1.124 5.965.818 12.54-2.036 18.015-3.741 7.177-10.304 8.561-17.774 9.036-8.01.51-17.996.276-21.255 8.968-.464 1.236 1.093 2.184 2.112 1.624 8.007-4.408 15.45-4.307 24.237-5.48 6.182-.826 11.536-3.243 15.304-8.356 8.258-11.207 5.9-28.524-2.01-39.219-7.06-9.548-23.206-16.64-34.034-8.67-5.32 3.917-6.844 10.94-8.261 16.997-2.005 8.57-3.107 16.834-1.879 25.612.068.488.884.372.859-.116"
            ></path>
            <path
              fill="#ed1c24"
              d="M215.5 395.212c9.74.297 24.952 5.361 22.64 18.012-1.565 8.563-9.992 16.883-17.064 21.28-7.275 4.524-23.621 10.696-27.69-1.084-3.23-9.35.943-20.748 6.577-28.192 1.018-1.348-1.26-2.657-2.267-1.325-6.413 8.476-12.587 24.782-5.3 34.585 7.284 9.8 23.348 4.284 31.735-.747 9.473-5.682 21.592-18.362 18.629-30.568-2.863-11.797-16.997-15.44-27.46-13.434-.856.165-.617 1.45.2 1.473"
            ></path>
            <path
              fill="#ed1c24"
              d="M188.761 409.356c-2.976 1.556-4.85 3.87-7.292 6.08-3.706 3.356-5.77 3.447-10.182 1.24-2.692-1.347-5.154-2.887-7.395-4.927-9.224-8.396-12.97-28.33 4.968-26.314 2.09.234 2.21-2.523.947-3.495-5.244-4.03-12.868-.572-16.392 4.24-4.836 6.605-3.12 15.739 1.16 22.137 4.104 6.13 11.845 12.776 19.625 13.202 7.892.432 9.935-7.142 15.092-11.476.395-.332-.11-.908-.53-.687"
            ></path>
            <path
              fill="#ae1319"
              d="M294.487 293.221c-13.686-8.182-22.766 27.208-23.948 35.155-2.643 17.756 3.62 37.788 19.834 47.097 15.9 9.13 34.37 4.063 45.176-10.144 10.419-13.697 17.248-37.228 9.875-53.524-4.184-9.244-12.443-16.442-21.913-19.92-10.146-3.728-25.728-5.044-35.094 1.32-2.512 1.707-1.573 5.563 1.546 5.707 5.057.233 10.046-1.255 15.117-1.404 5.49-.164 11.036.545 16.175 2.56 8.28 3.245 15.462 9.835 18.158 18.447 4.914 15.693-3.633 40.616-16.854 50.342-17.627 12.967-40.614.09-47.606-18.25-3.468-9.098-3.46-19.304-1.182-28.688 1.646-6.779 10.393-31.032 20.62-28.47.136.035.218-.154.096-.228"
            ></path>
            <path
              fill="#ae1319"
              d="M285.88 333.033c-1.543 1.01-1.4 2.802-.473 4.227 1.32 2.033 3.826 2.95 6.152 2.55 8.129-1.393 6.665-11.597 7.462-17.442.227-1.659-.388-2.917-2.004-3.532-6.23-2.37-15.51 3.38-12.457 10.515.372.87 1.873 1.046 2.455.316 2.11-2.652 4.632-5.848 8.476-5.295l-2.108-2.768c.318 3.75 1.614 7.848.422 11.55-.566 1.763-1.574 3.327-3.421 3.693-2.524.5-3.81-1.598-4.412-3.776l-.092-.038"
            ></path>
            <path
              fill="#ae1319"
              d="M314.6 316.725c-1.644 3.14-1.647 8.212 3.037 8.45 4.935.25 8.454-6.875 8.754-10.958.32-4.36-2.792-9.4-7.651-8.98-3.652.316-8.063 5.698-3.877 8.375.662.424 1.682.156 2.052-.539.666-1.25.889-2.904 2.602-2.886 2.62.025 2.699 3.8 2.21 5.577-.367 1.341-1.828 5.135-3.446 5.443-1.982.377-2.144-3.112-2.31-4.303-.09-.647-1.091-.712-1.371-.179"
            ></path>
            <path
              fill="#ae1319"
              d="M315.159 340.947c.214 2.368 1.798 3.874 4.108 4.181.342.045.74-.292.809-.617.796-3.664 1.003-9.418-3.936-10.175-1.721-.264-3.523.553-4.241 2.179-.678 1.532-.363 3.324 1.24 4.053.722.327 1.78-.225 1.47-1.13-.221-.645-.073-1.309.347-1.846.68-.872 1.557-.61 2.347.073 1.828 1.584 1.373 4.504 1.122 6.623.28-.28.56-.561.842-.841-1.711-.062-3.234-.995-3.992-2.532l-.116.032"
            ></path>
            <path
              fill="#ae1319"
              d="M300.83 360.82c.794.061 1.497-.03 2.291-.155 1.19-.186 2.172-1.626 2.12-2.782-.053-1.172-.846-2.584-2.12-2.784-.794-.126-1.497-.216-2.29-.154-1.528.12-3.012 1.266-2.938 2.938.076 1.693 1.292 2.808 2.938 2.937"
            ></path>
            <path
              fill="#231f20"
              d="M305.275 310.993c2.573 0 2.578-4 0-4-2.574 0-2.578 4 0 4"
            ></path>
            <path
              fill="#b28349"
              d="M201.02 510.163c-12.857 4.301-21.497-9.219-18.88-20.774 2.421-10.688 12.463-17.56 22.407-20.398 6.965-1.99 25.676-6.222 30.296 1.561 6.389 10.761-8.27 16.008-13.864 21.636-1.694 1.703.08 4.123 2.189 3.76 11.097-1.905 22.715-16.179 16.727-27.415-2.874-5.392-8.507-6.757-14.198-6.753-8.578.005-17.833 1.33-25.804 4.539-12.194 4.91-23.233 16.185-21.453 30.253 1.19 9.415 13.33 23.653 22.945 14.219.259-.255-.004-.748-.365-.628"
            ></path>
            <path
              fill="#b28349"
              d="M199.021 495.2c-3.448 3.061-2.765 9.64-2.812 13.853-.065 6.048 1.115 12.438 4.287 17.684 5.51 9.115 17.005 14.192 26.695 8.362 9.764-5.876 18.504-19.063 17.264-30.723-1.362-12.788-12.638-16.313-21.996-22.568-1.88-1.256-3.827.81-3.49 2.681 1.206 6.686 7.784 7.914 12.568 11.456 9.843 7.287 3.782 19.488-2.321 26.943-2.82 3.447-6.221 7.547-11.005 7.936-4.702.381-9.267-2.508-12.194-5.987-3.39-4.026-4.473-9.184-5.538-14.177-1-4.687-2.88-10.705-1.352-15.399l-.106-.06"
            ></path>
            <path
              fill="#fff"
              d="M39.475 149.761c12.325-6.925 27.528-7.666 41.178-10.298 14.83-2.86 29.704-5.494 44.635-7.78 29.865-4.575 59.847-8.11 90.067-9.086 51.23-1.653 103.225 1.704 153.4 12.514 17.746 3.824 35.68 8.324 52.345 15.646 6.26 2.751 10.123-6.24 3.66-8.68-36.897-13.937-76.308-20.946-115.42-24.925-59.573-6.06-119.493-3.987-178.636 5.17-17.028 2.635-33.964 5.943-50.83 9.458a501.336 501.336 0 00-25.746 6.085c-6.436 1.702-12.408 3.822-17.532 8.166-2.103 1.785.59 5.017 2.879 3.73"
            ></path>
            <path
              fill="#fff"
              d="M63.76 216.448c1.99.537 2.492.243 4.352-.623 3.344-1.556 6.708-3.06 10.119-4.468 2.032-.838 6.884-1.69 8.308-3.238 1.137-.103 1.228-.667.27-1.69l.054.398c.12.044.382.658.537.788.635.522 1.657.85 2.41.31 1.14-.816 1.47-1.497 1.597-2.897.15-1.647-1.42-2.63-2.81-2.81-4.338-.56-10.093 3.7-13.801 5.578-3.693 1.872-10.057 3.639-11.516 7.805-.123.351.14.755.48.847"
            ></path>
            <path
              fill="#fff"
              d="M68.863 231.87c4.464-1.96 8.177-4.778 12.973-6.071 4.041-1.09 8.815.124 12.115-2.528 1.21-.975.89-2.87 0-3.89-3.398-3.886-11.347-1.314-15.308.627-4.548 2.23-9.478 6.17-10.331 11.439-.055.338.241.56.55.422"
            ></path>
            <path
              fill="#fff"
              d="M74.172 242.355c7.665-3.794 16.405-6.002 24.864-6.892 5.068-.535 5.123-8.54 0-8-5.247.552-10.304 2.077-14.844 4.804-4.643 2.79-7.15 5.662-10.107 10.001l.087.087"
            ></path>
            <path
              fill="#fff"
              d="M361.857 232.59c6.752.911 17.523 3.447 21.166 9.94 2.59 4.62 8.996-1.793 4.36-4.362-4.292-2.379-7.68-5.425-12.462-7.023-4.293-1.433-8.638-1.546-13.064-.726-1.05.194-1.098 2.021 0 2.17"
            ></path>
            <path
              fill="#fff"
              d="M366.492 222.327c8.477 3.116 16.613 5.352 24.023 10.778 4.209 3.083 8.86-4.708 4.1-7.016-8.584-4.16-18.675-7.37-28.123-4.605-.436.127-.395.699 0 .843"
            ></path>
            <path
              fill="#fff"
              d="M375.103 208.045c5.989 2.618 12.41 3.87 18.218 6.97 2.85 1.52 9.192 5.777 10.827.354 1.563-5.184-6.672-7.698-10.084-9.074-5.853-2.359-12.008-4.047-18.332-3.074-2.157.334-2.647 3.943-.63 4.824"
            ></path>
            <path
              fill="#fff"
              d="M77.656 264.848c46.855-20.299 97.275-34.27 148.485-36.257 25.218-.979 50.446 1.034 75.123 6.353 13.292 2.865 26.47 6.33 39.556 10.013a813.69 813.69 0 0119.683 5.81c5.25 1.621 10.406 4.217 15.94 3.296 1.308-.218 1.554-1.986.746-2.82-2.837-2.935-6.288-3.763-10.126-4.979a813.266 813.266 0 00-48.125-13.625c-20.009-5.007-40.177-8.715-60.785-10.023-39.848-2.53-80.242 2.67-118.546 13.743-22.096 6.388-43.494 14.68-64.286 24.496-2.72 1.284-.345 5.153 2.335 3.993"
            ></path>
            <path
              fill="#78ca2a"
              d="M267.428 430.495c-2.37 17.162-4.853 34.297-8.437 51.256-.56 2.642 3.173 4.548 4.56 1.924 6.253-11.832 12.884-23.492 20.025-34.81a436.967 436.967 0 0116.408-24.18c1.681-2.308 3.936-6.917 6.341-8.417l-3.73-.977.24.35.92-3.504-.258.195c-1.97 1.495-1.266 4.27 1.23 4.543l.32.034c1.004.11 2.308-.866 2.469-1.88l.063-.39c.22-1.38-.338-3.03-1.906-3.354-4.193-.869-6.541 4.756-8.56 7.514a435.653 435.653 0 00-13.832 20.03c-8.862 13.631-16.892 27.723-24.04 42.326l4.562 1.924c3.1-17.29 5.478-34.686 6.08-52.252.048-1.375-2.26-1.748-2.455-.332"
            ></path>
            <path
              fill="#78ca2a"
              d="M270.06 431.963c6.995-4.842 14.153-9.467 21.405-13.915 7.223-4.43 15.19-7.956 22.156-12.733 2.236-1.532.93-5.744-1.974-4.683-15.948 5.825-31.072 17.39-44.39 27.699-2.061 1.594.647 5.124 2.803 3.632"
            ></path>
            <path
              fill="#8d80a1"
              d="M224.65 560.39c-1.894 5.535-4.118 10.062-4.889 15.95-.566 4.327-.382 8.685.15 13.008 1.01 8.208 3.418 17.607 10.37 22.87 4.703 3.56 11.426 4.785 16.872 2.189 7.512-3.579 8.515-13.67 9.662-20.91 1.633-10.314 2.806-21.376 2.434-31.828-.23-6.476-1.765-13.4-8.274-16.237-6.74-2.937-16.784-1.8-22.275 3.2-4.375 3.983-7.085 11.076-2.792 15.965.633.722 1.62.074 1.708-.706.987-8.812 5.47-14.447 14.95-14.486 7.977-.032 11.007 4.758 11.407 12.264.652 12.266.02 24.662-2.597 36.68-1.499 6.876-4.125 14.32-12.781 12.676-6.22-1.18-10.095-6.702-12.182-12.302-4.065-10.908-4.814-27.118-1.636-38.298l-.128-.034"
            ></path>
            <path
              fill="#78ca2a"
              d="M198.241 541.096a32.363 32.363 0 00-2.824 6.268c-.732 2.21-1.696 4.615-1.584 6.963.163 3.438 4.77 3.998 5.894.797.734-2.095.592-4.507.893-6.705.296-2.163.563-4.296.767-6.47.16-1.726-2.351-2.216-3.146-.853"
            ></path>
            <path
              fill="#8d80a1"
              d="M203.976 559.273c.655 3.554 2.121 8.39.293 11.803-2.87 5.357 6.622 7.995 6.887 1.865.241-5.582-.563-12.025-6.412-14.436-.484-.2-.844.36-.768.768"
            ></path>
            <path
              fill="#f78e3f"
              d="M217.943 612.23l1.388-.695 1.506.408c-1.44-.644-2.597-.667-4.017.004a7.125 7.125 0 00-2.013 1.442c-1.88 1.903-2.666 4.714-1.247 7.124a4.292 4.292 0 003.675 2.108c1.35 0 3.112-.778 3.676-2.108.224-.53.454-1.04.59-1.596.186-.589.212-1.18.08-1.769-.11-.776-.106-.787.012-.03-.09-.753-.13.494-.013.045.075-.288-.323.573.125-.144.23-.368.432-.774.566-1.188.146-.467.168-.934.062-1.402-.081-.585-.084-.622-.006-.11-.068-.796-.12-1.368-.494-2.088-.778-1.502-3.093-1.43-3.89 0"
            ></path>
            <path
              fill="#ae1319"
              d="M227.408 626.15c-.565 4.9-.625 9.871-1.841 14.673-1.54 6.073 8.389 7.422 8.424 1.141.032-6.036-.88-11.775-4.663-16.61-.676-.866-1.824-.04-1.92.795"
            ></path>
            <path
              fill="#78ca2a"
              d="M232.995 655.38l.344-.324c1.122-1.057 1.122-3.068 0-4.125l-.344-.324c-1-.94-2.42-1.232-3.687-.698-1.184.5-2.135 1.746-2.075 3.084.052 1.178.635 2.307 1.672 2.915 1.324.775 2.996.503 4.09-.528"
            ></path>
            <path
              fill="#ed1c24"
              d="M241.893 622.935c-1.97.964-2.801 2.902-3.27 4.965-.544 2.39-.324 4.415 1.394 6.235 1.34 1.418 3.73 1.004 4.695-.606.932-1.554.907-2.913 1.143-4.65.074-.55.297-1.055.408-1.592.194-.942.002-1.727-.16-2.64-.35-1.95-2.702-2.452-4.21-1.712"
            ></path>
            <path
              fill="#8d80a1"
              d="M260.028 537.925c-2.041 2.28-1.347 5.48-1.181 8.307.188 3.252-.215 7.023 2.126 9.513 1.576 1.678 3.896.934 5.104-.657 2.038-2.685.787-7.335.01-10.39-.727-2.873-1.44-6.027-4.416-7.206-.522-.207-1.28.028-1.643.433"
            ></path>
            <path
              fill="#f78e3f"
              d="M274.61 515.084c.394 4.368.238 8.97-.08 13.364-.474 6.525 10.94 5.7 9.166-1.24-.65-2.548-1.583-5.041-3.041-7.228a47.908 47.908 0 00-2.08-2.859c-.934-1.2-1.651-1.56-2.792-2.524-.407-.344-1.232-.16-1.174.487"
            ></path>
            <path
              fill="#ae1319"
              d="M261.027 506.01c-2.011 1.034-4.047 2.24-5.872 3.577-2.191 1.604-4.227 3.033-5.236 5.644-1.336 3.46 4.07 6.697 6.386 3.717 1.392-1.793 1.736-3.857 2.812-5.804 1.022-1.85 2.255-3.237 3.879-4.581 1.483-1.228-.407-3.356-1.97-2.552"
            ></path>
            <path
              fill="#8d80a1"
              d="M276.41 491.94c2.07 1.57 3.897 3.344 5.87 5.01 1.776 1.498 3.375 3.465 5.493 4.455 3.264 1.527 6.688-2.33 3.976-5.154-3.497-3.64-9.964-4.763-14.713-5.796-.944-.206-1.344.94-.627 1.485"
            ></path>
            <path
              fill="#8d80a1"
              d="M288.028 463.685c.27 1.267.283 2.64.575 3.942.248 1.113.545 2.15.388 3.31-.262 1.938.466 3.891 2.532 4.46 1.689.463 4.194-.58 4.458-2.533.334-2.459.283-4.935-.733-7.25-1.03-2.346-2.71-3.437-5.068-4.082-1.345-.368-2.425.87-2.152 2.153"
            ></path>
            <path
              fill="#78ca2a"
              d="M302.221 440.256c1.055 4.476 3.339 10.108 8.282 11.159 2.436.518 4.16-1.852 3.105-4.039-.944-1.959-2.205-3.037-3.776-4.488-1.399-1.292-2.53-2.732-3.499-4.365-1.317-2.224-4.694-.739-4.112 1.733"
            ></path>
            <path
              fill="#f78e3f"
              d="M317.712 419.492l5.637-.265c1.754-.082 3.626-.107 5.082-1.194 1.017-.76 1.4-2.564 0-3.238-1.762-.848-3.464-.63-5.351-.356-1.979.286-3.955.586-5.932.88-2.37.35-1.807 4.285.564 4.173"
            ></path>
            <path
              fill="#8d80a1"
              d="M320.396 386.159c3.407-.267 7.407-.024 10.61-1.278 2.93-1.145 2.587-5.388-.754-5.576-3.47-.196-7.153 1.248-10.504 2.066-2.616.638-2.133 5.006.648 4.788"
            ></path>
            <path
              fill="#ed1c24"
              d="M248.392 460.096c.052-.628-.045-1.784.264-2.308.257-.436.367-.321.743-.655.929-.82 1.478-1.536 1.962-2.71.85-2.064 1.927-4.442 2.016-6.678.067-1.678-1.902-2.698-3.292-1.889-2.338 1.363-3.922 4.445-4.477 7.03-.301 1.4.01 2.331.501 3.591.487 1.25.227 2.175.159 3.62-.065 1.376 2.015 1.347 2.124 0"
            ></path>
            <path
              fill="#8d80a1"
              d="M284.601 396.985c-.15-3.386.168-6.685 1.146-9.94 1.244-4.136-5.464-5.422-6.058-.82a37.478 37.478 0 00.247 11.392c.459 2.64 4.783 2.023 4.665-.632"
            ></path>
            <path
              fill="#ae1319"
              d="M292.95 388.995c.033 2.417-.26 5.137.3 7.494.28 1.175 2.06 1.436 2.627.344 1.114-2.145 1.49-4.829 2.107-7.157.963-3.637-5.084-4.427-5.033-.681"
            ></path>
            <path
              fill="#f78e3f"
              d="M160.045 465.632c3.095 1.363 5.982 4.821 9.614 4.308.582-.083 1.14-.717 1.266-1.265.53-2.339-1.284-4.58-3.093-5.794-1.924-1.29-4.237-1.729-6.493-2.024-2.482-.325-3.556 3.78-1.294 4.775"
            ></path>
            <path
              fill="#78ca2a"
              d="M163.585 479.052c-1.085 2.701.054 5.516.37 8.287.332 2.896.012 6.208 1.124 8.921.712 1.735 3.152 2.435 4.226.552 1.728-3.028 1.288-6.97.574-10.275-.656-3.029-1.576-6.788-4.642-8.158-.717-.32-1.361-.05-1.652.673"
            ></path>
            <path
              fill="#ed1c24"
              d="M178.701 525.127c-1.001 1.144-1.373 2.446-.993 3.961.244.976.556 2.01 1.385 2.652 1.05.813 2.142 1.3 3.502.925a3.634 3.634 0 002.513-2.513c.619-2.203-.753-5.385-3.144-5.888-1.128-.237-2.455-.06-3.263.863"
            ></path>
            <path
              fill="#ae1319"
              d="M103.99 327.67c.315 2.642.627 5.242 1.19 7.843.281 1.303.408 2.847.947 4.074.508 1.157 1.246 1.365 2.07 2.268.688.752 1.919.326 2.194-.58.397-1.307.92-1.682.808-3.087-.098-1.199-.508-2.41-.786-3.576-.61-2.561-1.4-5.015-2.25-7.505-.72-2.116-4.474-1.955-4.172.564"
            ></path>
            <path
              fill="#f78e3f"
              d="M120.077 322.657c-.49 1.247-.928 2.344-1.018 3.704-.08 1.187-.367 2.364-.391 3.544-.02.968.55 2.01 1.416 2.467.205.11.457.227.681.29 1.343.369 2.45-.286 3.227-1.314.939-1.243 1.495-3.437 1.52-4.987.03-1.838-.753-3.26-1.883-4.64-1.118-1.369-3.033-.386-3.552.936"
            ></path>
            <path
              fill="#fff"
              d="M71.45 175.39c-3.175-4.135-3.478-10.5.305-14.506 5.09-5.39 13.773-2.107 16.88 3.699 6.9 12.893-9.54 22.818-20.576 19.321-11.887-3.767-14.806-18.988-6.94-27.877 5.604-6.335 14.565-9.222 22.62-10.728 11.105-2.076 22.658-2.14 33.92-2.29 11.512-.152 23.16-.344 34.557 1.556 22.779 3.8 44.159 13.787 66.736 18.44 3.363.694 4.507-3.836 1.396-5.062-14.076-5.548-29.064-9.158-43.568-13.462-12.643-3.75-25.084-6.782-38.307-7.405a331.6 331.6 0 00-43.097.784c-10.237.86-20.836 2.264-30.101 6.993-8 4.086-14.5 11.1-15.655 20.267-1.225 9.721 4.25 19.624 13.217 23.627 8.604 3.84 19.156 2.05 25.607-5.019 5.465-5.99 7.424-15.564 2.35-22.387-4.478-6.02-13.98-8.948-20.086-3.56-5.235 4.615-5.845 14.048.57 17.78l.171-.17"
            ></path>
            <path
              fill="#fff"
              d="M113.13 173.11c3.19-6.154 3.842-12.317 9.334-17.385 6.01-5.548 14.419-7.485 22.33-8.197 6.513-.587 13.162-.583 19.689-.215 7.229.408 13.94 2.67 21.054 3.438 1.452.156 1.566-1.768.663-2.447-6.527-4.908-16.116-5.144-24.007-5.33-8.322-.197-16.976-.09-25.145 1.706-6.97 1.532-13.765 4.563-18.639 9.923-4.106 4.518-8.466 12.094-6.765 18.313.179.65 1.159.827 1.485.195"
            ></path>
            <path
              fill="#fff"
              d="M114.05 171.347c5.055 10.221 24.96 4.857 32.763 1.678 12.122-4.936 24.319-14.228 29.894-26.385a2.377 2.377 0 00-4.102-2.397c-13.332 18.358-34.744 33.956-58.486 27.013l-.07.09"
            ></path>
            <path
              fill="#fff"
              d="M175.81 135.861c8.942 4.36 18.034 8.288 26.786 13.035 3.865 2.096 7.904 3.893 11.581 6.332 3.392 2.248 5.955 5.076 9.942 6.184 2.42.673 5.073-1.705 4.229-4.228-2.587-7.724-12.783-11.29-19.93-13.65-10.442-3.45-21.42-6.075-32.03-9.043-.797-.223-1.359.99-.577 1.37"
            ></path>
            <path
              fill="#fff"
              d="M398.805 175.561c5.616-3.266 5.87-10.9 2.254-15.862-4.306-5.908-12.388-5.846-18.038-1.928-6.846 4.75-8.298 13.524-4.817 20.852 4 8.416 13.63 13.27 22.765 11.956 21.018-3.019 25.478-29.368 9.94-41.798-7.912-6.329-18.182-8.729-28.016-10.037-13.322-1.772-26.861-1.895-40.282-1.893-14.984.002-29.143 1.76-43.548 5.93-16.41 4.75-33.435 8.898-49.328 15.162-3.106 1.224-1.972 5.757 1.396 5.062 22.19-4.573 43.2-14.233 65.532-18.237 11.777-2.112 23.845-1.916 35.762-1.759 11.26.15 22.816.214 33.918 2.29 8.062 1.508 17.014 4.39 22.62 10.728 7.488 8.461 5.338 22.73-5.526 27.288-11.173 4.688-29.241-5.182-21.99-18.732 3.066-5.727 11.874-9.232 16.88-3.699 3.686 4.075 3.546 10.285.306 14.507l.172.17"
            ></path>
            <path
              fill="#fff"
              d="M358.439 172.916c1.62-5.924-2.328-13.07-6.098-17.521-4.917-5.808-11.972-9.132-19.306-10.715-7.823-1.688-16.03-1.859-24-1.732-8.207.13-18.351.243-25.152 5.356-.903.679-.791 2.603.662 2.447 6.73-.727 13.095-2.898 19.912-3.374 6.882-.48 13.96-.49 20.834.151 7.416.692 14.93 2.364 20.893 7.07 6.596 5.205 7.223 11.669 10.77 18.513.327.63 1.306.457 1.485-.195"
            ></path>
            <path
              fill="#fff"
              d="M355.964 171.256c-23.743 6.943-45.155-8.655-58.485-27.013a2.377 2.377 0 00-4.103 2.397c5.576 12.16 17.77 21.448 29.893 26.385 7.787 3.171 27.71 8.54 32.766-1.678l-.071-.09"
            ></path>
            <path
              fill="#fff"
              d="M293.695 134.49c-10.604 2.966-21.594 5.597-32.03 9.043-7.192 2.376-17.334 5.902-19.93 13.651-.844 2.523 1.808 4.901 4.229 4.228 3.987-1.108 6.547-3.94 9.941-6.184 3.679-2.432 7.715-4.24 11.582-6.332 8.757-4.74 17.842-8.675 26.785-13.035.773-.377.228-1.596-.577-1.37"
            ></path>
            <path
              fill="#8d80a1"
              d="M159.075 282.519c-8.383-9.787-22.256-28.136-37.331-21.636-13.277 5.725-13.356 22.786-7.45 33.757 5.753 10.687 18.389 26.916 32.38 22.495 15.354-4.85 17.426-25.43 10.231-37.594-.994-1.68-3.982-1.064-3.842 1.042.638 9.664 4.762 29.773-10.774 30.682-9.67.567-19.765-14.282-23.168-21.937-4.866-10.95 1.056-29.095 16.01-21.897 8.766 4.221 13.32 14.564 23.153 16.445.81.156 1.33-.728.79-1.357"
            ></path>
            <path
              fill="#78ca2a"
              d="M226.088 290.663c5.193.886 9.136 6.173 12.595 9.666 3.67 3.708 7.364 7.394 10.969 11.167.8.839 2.417.915 3.205 0 6.43-7.456 14.356-14.447 19.878-22.559 1.326-1.949-1.374-4.789-3.335-3.334-7.956 5.9-14.307 15.18-20.103 23.146l3.56-.458c-5.636-4.998-10.96-10.396-16.716-15.25-3.257-2.748-5.87-4.258-10.053-2.98-.273.082-.321.546 0 .602"
            ></path>
            <path
              fill="#78ca2a"
              d="M232.377 293.424c10.58 1.404 22.239 2.405 32.903 1.876 2.576-.128 3.51-4.396.648-4.788-10.796-1.481-22.676-1.58-33.55-1.088-2.647.12-2.489 3.67 0 4"
            ></path>
            <path
              fill="#f78e3f"
              d="M159.943 252.51c-.556.62-1.046 1.325-1.64 1.906-.084.083-1.046.879-.642.599.21-.146-.981.585-1.073.67-1.732 1.62-2.537 4.168-2.084 6.428.572 2.854 4.597 3.055 5.97.78.98-1.624 1.066-3.792.722-5.642-.039-.208-.356-1.043-.316-.915.064.208-.093-.563-.097-.703-.03-.812.214-1.606.413-2.393.177-.693-.735-1.307-1.253-.73"
            ></path>
            <path
              fill="#f78e3f"
              d="M305.112 254.899c.392 3.882.488 7.785 1.284 11.608.747 3.59.99 9.368 2.973 12.45 2.943 4.572 9.926 1.792 14.166.736 4.78-1.192 15.366-2.788 17.122-8.514.982-3.202-1.733-7.794-2.812-10.6-1.513-3.936-2.838-7.982-4.844-11.696-.918-1.7-3.385-1.943-4.706-.607a135.657 135.657 0 01-3.196 3.181c-1.38 1.348.025 4.247 2.006 3.447a129.161 129.161 0 014.106-1.619c-1.23-.697-2.46-1.396-3.687-2.093 1.117 5.407 3.548 10.432 5.096 15.719 1 3.413 1.212 2.136-3.079 3.845-2.537 1.01-5.12 1.895-7.708 2.768-1.29.436-6.69 3.041-7.81 2.432-1.172-.639-1.738-5.221-2.04-6.281-1.496-5.256-3.428-9.896-5.522-14.959-.264-.641-1.436-.665-1.35.183"
            ></path>
            <path
              fill="#f78e3f"
              d="M305.425 259.384c7.95-.98 17.662-1.164 24.752-5.132 1.814-1.013.892-3.619-1.01-3.727-8.111-.46-16.927 4.276-24.026 7.811-.478.239-.273 1.117.284 1.048"
            ></path>
            <path
              fill="#ae1319"
              d="M342.136 284.488c.555 3.872-.124 7.781.479 11.627.3 1.913 2.816 1.385 3.374 0 1.57-3.896.444-8.628-.72-12.49-.62-2.06-3.422-1.154-3.133.863"
            ></path>
            <path
              fill="#8d80a1"
              d="M355.001 313.259c.286-1.202.234-2.11 1.048-2.952.692-.716 1.926-1.04 2.842-1.324 2.465-.762 2.242-3.943 0-4.79-4.892-1.849-10.764 5.082-8.116 9.618.976 1.672 3.76 1.41 4.226-.552"
            ></path>
            <path
              fill="#ed1c24"
              d="M353.84 330.515c.668-.098 1.147-.206 1.688-.667.3-.256.57-.544.85-.823.567-.568.689-1.502.282-2.196-.435-.744-1.243-.96-2.047-.833-.392.063-.825.088-1.204.212-.61.2-1.02.621-1.454 1.068-.6.617-.742 1.599-.303 2.348.468.801 1.325 1.017 2.188.89"
            ></path>
            <path
              fill="#f78e3f"
              d="M359.996 275.57c-1.37 2.138-1.103 4.193-.55 6.562.669 2.87 1.586 6.18 4.869 6.883 1.638.35 3.65-.21 4.466-1.818 1.743-3.43-.196-6.057-2.284-8.752-1.53-1.976-2.888-3.184-5.422-3.496-.435-.053-.862.28-1.08.62"
            ></path>
            <path
              fill="#78ca2a"
              d="M376.392 265.861l.327-.196c-.127.051.31-.06.12-.005-.112.032.253.09.06.005-.218-.097.289.102.289.102l-1.59-1.59c.146.67.157.611.03-.177l-.01.273c-.067.51-.006 1.146.182 1.604.267.648-.079-1.2-.012-.122.07 1.094.257-.815.09-.119-.515 2.161.68 4.712 2.974 5.235 2.37.54 4.453-.718 5.235-2.972 1.117-3.224-1.02-7.6-4.788-7.44-.716.03-1.498.21-2.123.574-.45.264-.77.656-1.19.963-.791.575-1.385 1.35-1.614 2.313-.259 1.094.975 2.254 2.02 1.552"
            ></path>
            <path
              fill="#ed1c24"
              d="M100.835 288.923c-2.718-.22-6.051.332-8.07 2.31-2.358 2.314-3.464 6.136-2.494 9.275.952 3.079 6.177 3.633 6.812 0 .306-1.756.62-3.27 1.409-4.856.884-1.781 1.145-3.157 3.07-4.05 1.41-.657.549-2.577-.727-2.68"
            ></path>
            <path
              fill="#78ca2a"
              d="M91.89 266.952c-.25-.676-.498-1.087-.97-1.639l.652 1.118c-.528-1.33-1.31-2.063-2.63-2.516a5.35 5.35 0 00-2.44-.256c-1.555.21-2.573 1.22-3.44 2.424-1.073 1.485-.778 3.022-.089 4.558l-.45-1.664c.02 1.28.388 2.35 1.217 3.331.61.723 1.77.94 2.644.699.97-.267 1.567-.986 1.897-1.898.072-.198.319-.698-.048.083.23-.493-.49.53-.081.116l-2.332.967c1.279-.164 2.207-.342 3.196-1.247.496-.456-.139.165-.288.2.257-.061 1.315-1.025 1.13-.824l.623-.808c.446-1.063.535-1.272.27-.628-.275.67-.084.216.018.064-.541.801-.368.475-.148.245.263-.272.5-.566.695-.893l-1.513 1.164.289-.097c-.341.032-.384.042-.13.033 1.203-.019 2.393-1.279 1.929-2.532"
            ></path>
            <path
              fill="#231f20"
              d="M109.719 312.056c3.94 0 3.948-6.125 0-6.125-3.94 0-3.947 6.125 0 6.125"
            ></path>
            <path
              fill="#8d80a1"
              d="M167.655 299.336c.777 1.541 2.525 3.787 4.344 4.063 2.1.317 3.82-.512 4.56-2.59.64-1.794-.406-4.352-1.454-5.828-1.302-1.836-3.825-2.886-5.902-1.548-2.064 1.331-2.636 3.743-1.548 5.903"
            ></path>
            <path
              fill="#78ca2a"
              d="M196.25 293.325c1.358.3 2.782.508 4.09.983l-2.144-3.776c-.187.748-.515 1.627-.48 2.397.056 1.268.73 2.143 1.504 3.07 1.281 1.534 3.777.91 4.712-.607.57-.925.987-1.799.833-2.936-.092-.685-.388-1.285-.65-1.924-.62-1.512-2.026-2.661-3.775-2.144-1.316.39-2.735.507-4.09.719-2.155.336-2.017 3.773 0 4.218"
            ></path>
            <path
              fill="#ae1319"
              d="M167.101 271.101c.127-.084.736-.456.142-.138-.582.31.12.02.257-.018l1.27-.352c1.429-.394 2.64-1.85 2.573-3.377-.07-1.547-1.04-2.955-2.572-3.379l-1.271-.352-.508-.14c.527.286.661.346.405.182l-.296-.198c-2.892-1.925-6.77.627-6.77 3.887 0 3.259 3.878 5.81 6.77 3.885"
            ></path>
            <path
              fill="#ed1c24"
              d="M291.652 268.343c-.57-1.15-1.137-2.195-2.303-2.875a3.702 3.702 0 00-3.705 0c-1.17.683-1.728 1.72-2.303 2.875-.781 1.57-.913 3.294 0 4.857a4.85 4.85 0 004.156 2.384c1.696 0 3.299-.92 4.155-2.384.915-1.563.781-3.288 0-4.857"
            ></path>
            <path
              fill="#231f20"
              d="M295.497 256.93c5.067 0 5.075-7.874 0-7.874-5.068 0-5.076 7.875 0 7.875"
            ></path>
            <path
              fill="#8d80a1"
              d="M142.825 255.052c.73-1.39 2.552-3.768.83-5.07-1.808-1.369-3.356 1.149-4.364 2.343-.864 1.026-.904 2.484.228 3.36 1.014.783 2.673.572 3.306-.633"
            ></path>
          </g>
        </g>
      </g>
    </svg>